<mxfile host="app.diagrams.net" modified="2023-09-16T04:50:19.291Z" agent="Mozilla/5.0 (Windows NT 10.0; Win64; x64) AppleWebKit/537.36 (KHTML, like Gecko) Chrome/116.0.0.0 Safari/537.36 Edg/116.0.1938.81" etag="dAFQ4CHqazxRwzUCF846" version="21.7.5" type="device">
  <diagram name="Страница — 1" id="hPOboqU9WSpiXvBVvbBl">
    <mxGraphModel dx="1247" dy="692" grid="1" gridSize="10" guides="1" tooltips="1" connect="1" arrows="1" fold="1" page="1" pageScale="1" pageWidth="827" pageHeight="1169" math="0" shadow="0">
      <root>
        <mxCell id="0" />
        <mxCell id="1" parent="0" />
        <mxCell id="osgIO-ZYQhGM5PBmXFn--10" style="rounded=0;orthogonalLoop=1;jettySize=auto;html=1;exitX=0.55;exitY=0.95;exitDx=0;exitDy=0;exitPerimeter=0;edgeStyle=orthogonalEdgeStyle;endArrow=none;endFill=0;startArrow=classic;startFill=1;" edge="1" parent="1" source="osgIO-ZYQhGM5PBmXFn--1">
          <mxGeometry relative="1" as="geometry">
            <mxPoint x="540" y="860" as="targetPoint" />
            <mxPoint x="424.75" y="647.62" as="sourcePoint" />
            <Array as="points">
              <mxPoint x="425" y="680" />
              <mxPoint x="540" y="680" />
            </Array>
          </mxGeometry>
        </mxCell>
        <mxCell id="osgIO-ZYQhGM5PBmXFn--75" style="edgeStyle=orthogonalEdgeStyle;rounded=0;orthogonalLoop=1;jettySize=auto;html=1;startArrow=classic;startFill=1;exitX=0.707;exitY=0.175;exitDx=0;exitDy=0;exitPerimeter=0;" edge="1" parent="1" source="osgIO-ZYQhGM5PBmXFn--1">
          <mxGeometry relative="1" as="geometry">
            <mxPoint x="460" y="535" as="sourcePoint" />
            <mxPoint x="460" y="460" as="targetPoint" />
            <Array as="points">
              <mxPoint x="460" y="500" />
              <mxPoint x="460" y="500" />
            </Array>
          </mxGeometry>
        </mxCell>
        <mxCell id="osgIO-ZYQhGM5PBmXFn--1" value="&lt;i&gt;Voice Alarm System&lt;/i&gt;&lt;br&gt;SERVER" style="ellipse;shape=cloud;whiteSpace=wrap;html=1;align=center;" vertex="1" parent="1">
          <mxGeometry x="301" y="517" width="225" height="135" as="geometry" />
        </mxCell>
        <mxCell id="osgIO-ZYQhGM5PBmXFn--76" style="edgeStyle=orthogonalEdgeStyle;rounded=0;orthogonalLoop=1;jettySize=auto;html=1;exitX=1;exitY=0.5;exitDx=0;exitDy=0;entryX=0.085;entryY=0.5;entryDx=0;entryDy=0;entryPerimeter=0;startArrow=classic;startFill=1;" edge="1" parent="1" source="osgIO-ZYQhGM5PBmXFn--2" target="osgIO-ZYQhGM5PBmXFn--1">
          <mxGeometry relative="1" as="geometry" />
        </mxCell>
        <mxCell id="osgIO-ZYQhGM5PBmXFn--2" value="User Client &lt;br&gt;&lt;font style=&quot;font-size: 10px;&quot;&gt;&lt;i&gt;Microphone&lt;br&gt;Keyboard&lt;/i&gt;&lt;/font&gt;" style="rounded=1;arcSize=10;whiteSpace=wrap;html=1;align=center;" vertex="1" parent="1">
          <mxGeometry x="40" y="545" width="120" height="80" as="geometry" />
        </mxCell>
        <mxCell id="osgIO-ZYQhGM5PBmXFn--40" style="edgeStyle=orthogonalEdgeStyle;rounded=0;orthogonalLoop=1;jettySize=auto;html=1;exitX=1;exitY=0.5;exitDx=0;exitDy=0;endArrow=none;endFill=0;" edge="1" parent="1" source="osgIO-ZYQhGM5PBmXFn--3">
          <mxGeometry relative="1" as="geometry">
            <mxPoint x="740" y="500" as="targetPoint" />
          </mxGeometry>
        </mxCell>
        <mxCell id="osgIO-ZYQhGM5PBmXFn--3" value="Audio Client" style="rounded=1;arcSize=10;whiteSpace=wrap;html=1;align=center;" vertex="1" parent="1">
          <mxGeometry x="560" y="760" width="120" height="40" as="geometry" />
        </mxCell>
        <mxCell id="osgIO-ZYQhGM5PBmXFn--39" style="edgeStyle=orthogonalEdgeStyle;rounded=0;orthogonalLoop=1;jettySize=auto;html=1;exitX=1;exitY=0.5;exitDx=0;exitDy=0;endArrow=none;endFill=0;" edge="1" parent="1" source="osgIO-ZYQhGM5PBmXFn--6">
          <mxGeometry relative="1" as="geometry">
            <mxPoint x="740" y="1140" as="targetPoint" />
          </mxGeometry>
        </mxCell>
        <mxCell id="osgIO-ZYQhGM5PBmXFn--6" value="Audio Client" style="rounded=1;arcSize=10;whiteSpace=wrap;html=1;align=center;" vertex="1" parent="1">
          <mxGeometry x="560" y="840" width="120" height="40" as="geometry" />
        </mxCell>
        <mxCell id="osgIO-ZYQhGM5PBmXFn--65" style="edgeStyle=orthogonalEdgeStyle;rounded=0;orthogonalLoop=1;jettySize=auto;html=1;exitX=0;exitY=0.5;exitDx=0;exitDy=0;endArrow=none;endFill=0;" edge="1" parent="1" source="osgIO-ZYQhGM5PBmXFn--8">
          <mxGeometry relative="1" as="geometry">
            <mxPoint x="340" y="1100" as="targetPoint" />
          </mxGeometry>
        </mxCell>
        <mxCell id="osgIO-ZYQhGM5PBmXFn--8" value="Audio Client" style="rounded=1;arcSize=10;whiteSpace=wrap;html=1;align=center;" vertex="1" parent="1">
          <mxGeometry x="400" y="800" width="120" height="40" as="geometry" />
        </mxCell>
        <mxCell id="osgIO-ZYQhGM5PBmXFn--14" value="" style="html=1;verticalAlign=bottom;endArrow=block;curved=0;rounded=0;" edge="1" parent="1">
          <mxGeometry width="80" relative="1" as="geometry">
            <mxPoint x="540" y="859.8" as="sourcePoint" />
            <mxPoint x="560" y="860" as="targetPoint" />
          </mxGeometry>
        </mxCell>
        <mxCell id="osgIO-ZYQhGM5PBmXFn--15" value="" style="html=1;verticalAlign=bottom;endArrow=block;curved=0;rounded=0;" edge="1" parent="1">
          <mxGeometry width="80" relative="1" as="geometry">
            <mxPoint x="540" y="780" as="sourcePoint" />
            <mxPoint x="560" y="780" as="targetPoint" />
          </mxGeometry>
        </mxCell>
        <mxCell id="osgIO-ZYQhGM5PBmXFn--16" value="" style="html=1;verticalAlign=bottom;endArrow=block;curved=0;rounded=0;" edge="1" parent="1">
          <mxGeometry width="80" relative="1" as="geometry">
            <mxPoint x="540" y="819.8" as="sourcePoint" />
            <mxPoint x="520" y="820" as="targetPoint" />
          </mxGeometry>
        </mxCell>
        <mxCell id="osgIO-ZYQhGM5PBmXFn--26" value="Speaker" style="shape=rhombus;perimeter=rhombusPerimeter;whiteSpace=wrap;html=1;align=center;" vertex="1" parent="1">
          <mxGeometry x="760" y="960" width="120" height="40" as="geometry" />
        </mxCell>
        <mxCell id="osgIO-ZYQhGM5PBmXFn--27" value="Speaker" style="shape=rhombus;perimeter=rhombusPerimeter;whiteSpace=wrap;html=1;align=center;" vertex="1" parent="1">
          <mxGeometry x="760" y="1040" width="120" height="40" as="geometry" />
        </mxCell>
        <mxCell id="osgIO-ZYQhGM5PBmXFn--28" value="Speaker" style="shape=rhombus;perimeter=rhombusPerimeter;whiteSpace=wrap;html=1;align=center;" vertex="1" parent="1">
          <mxGeometry x="760" y="1120" width="120" height="40" as="geometry" />
        </mxCell>
        <mxCell id="osgIO-ZYQhGM5PBmXFn--29" value="Speaker" style="shape=rhombus;perimeter=rhombusPerimeter;whiteSpace=wrap;html=1;align=center;" vertex="1" parent="1">
          <mxGeometry x="760" y="480" width="120" height="40" as="geometry" />
        </mxCell>
        <mxCell id="osgIO-ZYQhGM5PBmXFn--30" value="Speaker" style="shape=rhombus;perimeter=rhombusPerimeter;whiteSpace=wrap;html=1;align=center;" vertex="1" parent="1">
          <mxGeometry x="760" y="560" width="120" height="40" as="geometry" />
        </mxCell>
        <mxCell id="osgIO-ZYQhGM5PBmXFn--31" value="Speaker" style="shape=rhombus;perimeter=rhombusPerimeter;whiteSpace=wrap;html=1;align=center;" vertex="1" parent="1">
          <mxGeometry x="760" y="640" width="120" height="40" as="geometry" />
        </mxCell>
        <mxCell id="osgIO-ZYQhGM5PBmXFn--33" value="Speaker" style="shape=rhombus;perimeter=rhombusPerimeter;whiteSpace=wrap;html=1;align=center;" vertex="1" parent="1">
          <mxGeometry x="600" y="520" width="120" height="40" as="geometry" />
        </mxCell>
        <mxCell id="osgIO-ZYQhGM5PBmXFn--34" value="Speaker" style="shape=rhombus;perimeter=rhombusPerimeter;whiteSpace=wrap;html=1;align=center;" vertex="1" parent="1">
          <mxGeometry x="600" y="600" width="120" height="40" as="geometry" />
        </mxCell>
        <mxCell id="osgIO-ZYQhGM5PBmXFn--36" value="Speaker" style="shape=rhombus;perimeter=rhombusPerimeter;whiteSpace=wrap;html=1;align=center;" vertex="1" parent="1">
          <mxGeometry x="600" y="1000" width="120" height="40" as="geometry" />
        </mxCell>
        <mxCell id="osgIO-ZYQhGM5PBmXFn--37" value="Speaker" style="shape=rhombus;perimeter=rhombusPerimeter;whiteSpace=wrap;html=1;align=center;" vertex="1" parent="1">
          <mxGeometry x="600" y="1080" width="120" height="40" as="geometry" />
        </mxCell>
        <mxCell id="osgIO-ZYQhGM5PBmXFn--42" value="" style="html=1;verticalAlign=bottom;endArrow=block;curved=0;rounded=0;" edge="1" parent="1">
          <mxGeometry width="80" relative="1" as="geometry">
            <mxPoint x="740" y="979.88" as="sourcePoint" />
            <mxPoint x="760" y="980.08" as="targetPoint" />
          </mxGeometry>
        </mxCell>
        <mxCell id="osgIO-ZYQhGM5PBmXFn--43" value="" style="html=1;verticalAlign=bottom;endArrow=block;curved=0;rounded=0;" edge="1" parent="1">
          <mxGeometry width="80" relative="1" as="geometry">
            <mxPoint x="740" y="1059.88" as="sourcePoint" />
            <mxPoint x="760" y="1060.08" as="targetPoint" />
          </mxGeometry>
        </mxCell>
        <mxCell id="osgIO-ZYQhGM5PBmXFn--44" value="" style="html=1;verticalAlign=bottom;endArrow=block;curved=0;rounded=0;" edge="1" parent="1">
          <mxGeometry width="80" relative="1" as="geometry">
            <mxPoint x="740" y="1139.88" as="sourcePoint" />
            <mxPoint x="760" y="1140.08" as="targetPoint" />
          </mxGeometry>
        </mxCell>
        <mxCell id="osgIO-ZYQhGM5PBmXFn--45" value="" style="html=1;verticalAlign=bottom;endArrow=block;curved=0;rounded=0;" edge="1" parent="1">
          <mxGeometry width="80" relative="1" as="geometry">
            <mxPoint x="740" y="1099.88" as="sourcePoint" />
            <mxPoint x="720" y="1100" as="targetPoint" />
          </mxGeometry>
        </mxCell>
        <mxCell id="osgIO-ZYQhGM5PBmXFn--46" value="" style="html=1;verticalAlign=bottom;endArrow=block;curved=0;rounded=0;" edge="1" parent="1">
          <mxGeometry width="80" relative="1" as="geometry">
            <mxPoint x="740" y="1019.8800000000001" as="sourcePoint" />
            <mxPoint x="720" y="1020" as="targetPoint" />
          </mxGeometry>
        </mxCell>
        <mxCell id="osgIO-ZYQhGM5PBmXFn--47" value="" style="html=1;verticalAlign=bottom;endArrow=block;curved=0;rounded=0;" edge="1" parent="1">
          <mxGeometry width="80" relative="1" as="geometry">
            <mxPoint x="740" y="619.8800000000001" as="sourcePoint" />
            <mxPoint x="720" y="620" as="targetPoint" />
            <Array as="points">
              <mxPoint x="740" y="620" />
            </Array>
          </mxGeometry>
        </mxCell>
        <mxCell id="osgIO-ZYQhGM5PBmXFn--48" value="" style="html=1;verticalAlign=bottom;endArrow=block;curved=0;rounded=0;" edge="1" parent="1">
          <mxGeometry width="80" relative="1" as="geometry">
            <mxPoint x="740" y="539.8800000000001" as="sourcePoint" />
            <mxPoint x="720" y="540" as="targetPoint" />
            <Array as="points">
              <mxPoint x="740" y="540" />
            </Array>
          </mxGeometry>
        </mxCell>
        <mxCell id="osgIO-ZYQhGM5PBmXFn--49" value="" style="html=1;verticalAlign=bottom;endArrow=block;curved=0;rounded=0;" edge="1" parent="1">
          <mxGeometry width="80" relative="1" as="geometry">
            <mxPoint x="760" y="500" as="sourcePoint" />
            <mxPoint x="760" y="500" as="targetPoint" />
            <Array as="points">
              <mxPoint x="740" y="500" />
            </Array>
          </mxGeometry>
        </mxCell>
        <mxCell id="osgIO-ZYQhGM5PBmXFn--50" value="" style="html=1;verticalAlign=bottom;endArrow=block;curved=0;rounded=0;" edge="1" parent="1">
          <mxGeometry width="80" relative="1" as="geometry">
            <mxPoint x="760" y="579.88" as="sourcePoint" />
            <mxPoint x="760" y="579.88" as="targetPoint" />
            <Array as="points">
              <mxPoint x="740" y="579.88" />
            </Array>
          </mxGeometry>
        </mxCell>
        <mxCell id="osgIO-ZYQhGM5PBmXFn--51" value="" style="html=1;verticalAlign=bottom;endArrow=block;curved=0;rounded=0;" edge="1" parent="1">
          <mxGeometry width="80" relative="1" as="geometry">
            <mxPoint x="760" y="659.88" as="sourcePoint" />
            <mxPoint x="760" y="659.88" as="targetPoint" />
            <Array as="points">
              <mxPoint x="740" y="659.88" />
            </Array>
          </mxGeometry>
        </mxCell>
        <mxCell id="osgIO-ZYQhGM5PBmXFn--55" value="Speaker" style="shape=rhombus;perimeter=rhombusPerimeter;whiteSpace=wrap;html=1;align=center;" vertex="1" parent="1">
          <mxGeometry x="360" y="920" width="120" height="40" as="geometry" />
        </mxCell>
        <mxCell id="osgIO-ZYQhGM5PBmXFn--56" value="Speaker" style="shape=rhombus;perimeter=rhombusPerimeter;whiteSpace=wrap;html=1;align=center;" vertex="1" parent="1">
          <mxGeometry x="360" y="1000" width="120" height="40" as="geometry" />
        </mxCell>
        <mxCell id="osgIO-ZYQhGM5PBmXFn--57" value="Speaker" style="shape=rhombus;perimeter=rhombusPerimeter;whiteSpace=wrap;html=1;align=center;" vertex="1" parent="1">
          <mxGeometry x="360" y="1080" width="120" height="40" as="geometry" />
        </mxCell>
        <mxCell id="osgIO-ZYQhGM5PBmXFn--58" value="Speaker" style="shape=rhombus;perimeter=rhombusPerimeter;whiteSpace=wrap;html=1;align=center;" vertex="1" parent="1">
          <mxGeometry x="200" y="960" width="120" height="40" as="geometry" />
        </mxCell>
        <mxCell id="osgIO-ZYQhGM5PBmXFn--59" value="Speaker" style="shape=rhombus;perimeter=rhombusPerimeter;whiteSpace=wrap;html=1;align=center;" vertex="1" parent="1">
          <mxGeometry x="200" y="1040" width="120" height="40" as="geometry" />
        </mxCell>
        <mxCell id="osgIO-ZYQhGM5PBmXFn--60" value="" style="html=1;verticalAlign=bottom;endArrow=block;curved=0;rounded=0;" edge="1" parent="1">
          <mxGeometry width="80" relative="1" as="geometry">
            <mxPoint x="340" y="939.88" as="sourcePoint" />
            <mxPoint x="360" y="940.08" as="targetPoint" />
          </mxGeometry>
        </mxCell>
        <mxCell id="osgIO-ZYQhGM5PBmXFn--61" value="" style="html=1;verticalAlign=bottom;endArrow=block;curved=0;rounded=0;" edge="1" parent="1">
          <mxGeometry width="80" relative="1" as="geometry">
            <mxPoint x="340" y="1019.8800000000001" as="sourcePoint" />
            <mxPoint x="360" y="1020.0799999999999" as="targetPoint" />
          </mxGeometry>
        </mxCell>
        <mxCell id="osgIO-ZYQhGM5PBmXFn--62" value="" style="html=1;verticalAlign=bottom;endArrow=block;curved=0;rounded=0;" edge="1" parent="1">
          <mxGeometry width="80" relative="1" as="geometry">
            <mxPoint x="340" y="1099.88" as="sourcePoint" />
            <mxPoint x="360" y="1100.08" as="targetPoint" />
          </mxGeometry>
        </mxCell>
        <mxCell id="osgIO-ZYQhGM5PBmXFn--63" value="" style="html=1;verticalAlign=bottom;endArrow=block;curved=0;rounded=0;" edge="1" parent="1">
          <mxGeometry width="80" relative="1" as="geometry">
            <mxPoint x="340" y="1059.88" as="sourcePoint" />
            <mxPoint x="320" y="1060" as="targetPoint" />
          </mxGeometry>
        </mxCell>
        <mxCell id="osgIO-ZYQhGM5PBmXFn--64" value="" style="html=1;verticalAlign=bottom;endArrow=block;curved=0;rounded=0;" edge="1" parent="1">
          <mxGeometry width="80" relative="1" as="geometry">
            <mxPoint x="340" y="979.8800000000001" as="sourcePoint" />
            <mxPoint x="320" y="980" as="targetPoint" />
          </mxGeometry>
        </mxCell>
        <mxCell id="osgIO-ZYQhGM5PBmXFn--71" value="Amplifier" style="ellipse;whiteSpace=wrap;html=1;aspect=fixed;" vertex="1" parent="1">
          <mxGeometry x="301" y="840" width="80" height="80" as="geometry" />
        </mxCell>
        <mxCell id="osgIO-ZYQhGM5PBmXFn--72" value="Amplifier" style="ellipse;whiteSpace=wrap;html=1;aspect=fixed;" vertex="1" parent="1">
          <mxGeometry x="700" y="880" width="80" height="80" as="geometry" />
        </mxCell>
        <mxCell id="osgIO-ZYQhGM5PBmXFn--73" value="Amplifier" style="ellipse;whiteSpace=wrap;html=1;aspect=fixed;" vertex="1" parent="1">
          <mxGeometry x="700" y="680" width="80" height="80" as="geometry" />
        </mxCell>
        <mxCell id="osgIO-ZYQhGM5PBmXFn--74" value="Postgres&lt;br&gt;SQL" style="shape=cylinder;whiteSpace=wrap;html=1;boundedLbl=1;backgroundOutline=1;" vertex="1" parent="1">
          <mxGeometry x="430" y="380" width="60" height="80" as="geometry" />
        </mxCell>
      </root>
    </mxGraphModel>
  </diagram>
</mxfile>
